<?xml version="1.0" encoding="UTF-8"?>
<mxfile host="app.diagrams.net" modified="2-monolith-with-separate-frontend-and-backend" agent="PlantUML Converter" version="1.0" etag="plantuml-diagram" type="device">
  <diagram id="plantuml-2-monolith-with-separate-frontend-and-backend" name="2-monolith-with-separate-frontend-and-backend">
    <mxGraphModel dx="1422" dy="794" grid="1" gridSize="10" guides="1" tooltips="1" connect="1" arrows="1" fold="1" page="1" pageScale="1" pageWidth="827" pageHeight="1169" math="0" shadow="0">
      <root>
        <mxCell id="0" />
        <mxCell id="1" parent="0" />
        <mxCell id="plantuml-container" value="" style="shape=image;html=1;verticalAlign=top;verticalLabelPosition=bottom;labelBackgroundColor=#ffffff;imageAspect=0;aspect=fixed;image=data:image/svg+xml,PHN2ZyB4bWxucz0iaHR0cDovL3d3dy53My5vcmcvMjAwMC9zdmciIHdpZHRoPSI0MDAiIGhlaWdodD0iMzAwIiB2aWV3Qm94PSIwIDAgNDAwIDMwMCI+CiAgPHJlY3Qgd2lkdGg9IjQwMCIgaGVpZ2h0PSIzMDAiIGZpbGw9IiNmOGY5ZmEiIHN0cm9rZT0iI2RlZTJlNiIvPgogIDx0ZXh0IHg9IjIwMCIgeT0iMTUwIiB0ZXh0LWFuY2hvcj0ibWlkZGxlIiBmb250LWZhbWlseT0iQXJpYWwiIGZvbnQtc2l6ZT0iMTQiIGZpbGw9IiM2Yzc1N2QiPgogICAgRGlhZ3JhbWEgUGxhbnRVTUw6IDItbW9ub2xpdGgtd2l0aC1zZXBhcmF0ZS1mcm9udGVuZC1hbmQtYmFja2VuZAogIDwvdGV4dD4KICA8dGV4dCB4PSIyMDAiIHk9IjE3MCIgdGV4dC1hbmNob3I9Im1pZGRsZSIgZm9udC1mYW1pbHk9IkFyaWFsIiBmb250LXNpemU9IjEyIiBmaWxsPSIjNmM3NTdkIj4KICAgIChTVkcgbsOjbyBkaXNwb27DrXZlbCAtIHVzZSBvIGPDs2RpZ28gUGxhbnRVTUwgaW5jb3Jwb3JhZG8pCiAgPC90ZXh0Pgo8L3N2Zz4=;plantuml=QHN0YXJ0dW1sCmxlZnQgdG8gcmlnaHQgZGlyZWN0aW9uCiFpbmNsdWRlIGh0dHBzOi8vcmF3LmdpdGh1YnVzZXJjb250ZW50LmNvbS9wbGFudHVtbC1zdGRsaWIvQzQtUGxhbnRVTUwvbWFzdGVyL0M0X0NvbnRhaW5lci5wdW1sCgpza2lucGFyYW0gbm9kZXNlcCAxMApza2lucGFyYW0gcmFua3NlcCAxMAoKVElUTEUgTW9ub2xpdGhpYyBBcHBsaWNhdGlvbiDigJMgQ29udGFpbmVyIERpYWdyYW0KClBlcnNvbih1c2VyLCAiVXNlciIsICJJbnRlcmFjdHMgdmlhIHdlYiBicm93c2VyIikKClN5c3RlbV9Cb3VuZGFyeShtb25vbGl0aCwgIk1vbm9saXRoaWMgQXBwbGljYXRpb24iKSB7CiAgQ29udGFpbmVyKGZyb250ZW5kLCAiRnJvbnRlbmQiLCAiSmF2YVNjcmlwdC9SZWFjdCIsICJSZW5kZXJzIFVJIGFuZCBoYW5kbGVzIHVzZXIgaW50ZXJhY3Rpb25zIikKICBDb250YWluZXIoYmFja2VuZCwgIkJhY2tlbmQiLCAiSmF2YS9TcHJpbmcgQm9vdCIsICJIb3N0cyBidXNpbmVzcyBsb2dpYyBhbmQgUkVTVCBBUElzIikKfQoKQ29udGFpbmVyRGIoZGF0YWJhc2UsICJEYXRhYmFzZSIsICJQb3N0Z3JlU1FMIiwgIlBlcnNpc3RzIGFsbCBhcHBsaWNhdGlvbiBkYXRhIikKClJlbCh1c2VyLCBmcm9udGVuZCwgIlVzZXMiLCAiSFRUUFMiKQpSZWwoZnJvbnRlbmQsIGJhY2tlbmQsICJDYWxscyBBUElzIiwgIkhUVFAvSlNPTiIpClJlbChiYWNrZW5kLCBkYXRhYmFzZSwgIlJlYWRzL1dyaXRlcyBkYXRhIiwgIkpEQkMvU1FMIikKCkBlbmR1bWwK;" vertex="1" parent="1">
          <mxGeometry x="40" y="40" width="400" height="300" as="geometry" />
        </mxCell>
      </root>
    </mxGraphModel>
  </diagram>
</mxfile>